<?xml version="1.0" encoding="UTF-8"?>
<svg id="Calque_1" data-name="Calque 1" xmlns="http://www.w3.org/2000/svg" viewBox="0 0 147.56 55.67">
  <defs>
    <style>
      .cls-1 {
        stroke-width: 0px;
      }
    </style>
  </defs>
  <path class="cls-1" d="M49,43.52c-3.62,3.96-8.52,5.94-14.71,5.94s-11.1-1.98-14.71-5.94c-3.62-3.96-5.42-9.19-5.42-15.69s1.81-11.73,5.42-15.69c3.61-3.96,8.52-5.94,14.71-5.94s11.09,1.98,14.71,5.94c3.61,3.96,5.42,9.19,5.42,15.69s-1.81,11.73-5.42,15.69ZM34.29,42.08c3.85.04,6.78-1.21,8.8-3.75s3.03-6.04,3.03-10.5-1-7.89-3-10.41c-2-2.52-4.94-3.8-8.83-3.84-3.85-.04-6.78,1.21-8.8,3.75-2.02,2.54-3.03,6.04-3.03,10.5s1,7.89,3,10.41c2,2.52,4.94,3.8,8.83,3.84Z"/>
  <path class="cls-1" d="M91.17,36.02c0,3.85-1.07,6.91-3.2,9.17-2.14,2.27-5.26,3.4-9.37,3.4h-.81v-5.56c0-.97.68-1.78,1.62-2.02s1.68-.67,2.34-1.31c1.02-1,1.53-2.33,1.53-3.98,0-1.54-.47-2.78-1.41-3.72-.94-.94-2.3-1.41-4.07-1.41v-7.41c.89-.15,1.64-.48,2.25-1.01.85-.73,1.27-1.83,1.27-3.29,0-1.31-.41-2.39-1.21-3.23-.59-.62-1.36-1.01-2.31-1.18-.34-.06-.71-.09-1.1-.09h-8.54v34.21h-7.96V7.07h16.61c4.12,0,7.22,1.16,9.32,3.49,2.1,2.33,3.14,5.05,3.14,8.16,0,3.81-1.31,6.48-3.92,8.02,1.88.77,3.32,1.99,4.32,3.67,1,1.67,1.5,3.55,1.5,5.62Z"/>
  <path class="cls-1" d="M105.91,17.39c2.02-2.54,4.97-3.81,8.86-3.81,5.02,0,8.47,2.1,10.33,6.29.42.94,1.47,1.44,2.46,1.17l6.07-1.68c-1.35-4.11-3.65-7.34-6.92-9.66-3.27-2.33-7.25-3.49-11.94-3.49-6.19,0-11.1,1.98-14.71,5.94-2.36,2.59-3.95,5.73-4.77,9.4h8.46c.5-1.59,1.22-2.97,2.16-4.15Z"/>
  <path class="cls-1" d="M114.76,42.08c-3.88,0-6.84-1.27-8.86-3.81-.94-1.18-1.66-2.57-2.16-4.15h-8.46c.82,3.68,2.4,6.81,4.77,9.4,3.61,3.96,8.52,5.94,14.71,5.94,4.69,0,8.67-1.16,11.94-3.49,3.27-2.33,5.58-5.55,6.92-9.66l-6.07-1.68c-1-.28-2.04.22-2.46,1.17-1.87,4.19-5.31,6.29-10.33,6.29Z"/>
</svg>
